<svg width="36" height="32" viewBox="0 0 36 32" fill="none" xmlns="http://www.w3.org/2000/svg">
<g clip-path="url(#clip0_41_588)">
<path d="M14.8246 28.9869H4.4353C1.98984 28.9869 0 27.017 0 24.596V7.77523C0 5.35429 1.98984 3.3844 4.4353 3.3844H28.707C31.1525 3.3844 33.1423 5.35429 33.1423 7.77523V10.1041C33.1423 10.7147 32.6433 11.2087 32.0265 11.2087C31.4097 11.2087 30.9107 10.7147 30.9107 10.1041V7.77523C30.9107 6.57243 29.922 5.59362 28.707 5.59362H4.4353C3.22032 5.59362 2.2316 6.57243 2.2316 7.77523V24.5991C2.2316 25.8019 3.22032 26.7807 4.4353 26.7807H14.8215C15.4383 26.7807 15.9373 27.2747 15.9373 27.8853C15.9373 28.4959 15.4383 28.9899 14.8215 28.9899L14.8246 28.9869Z" fill="#261133"/>
<path d="M32.0265 11.2087H1.1158C0.49901 11.2087 0 10.7147 0 10.1041C0 9.49352 0.49901 8.99951 1.1158 8.99951H32.0234C32.6402 8.99951 33.1392 9.49352 33.1392 10.1041C33.1392 10.7147 32.6402 11.2087 32.0234 11.2087H32.0265Z" fill="#261133"/>
<path d="M21.8387 5.59363C21.2219 5.59363 20.7229 5.09963 20.7229 4.48902V1.10461C20.7229 0.494007 21.2219 0 21.8387 0C22.4555 0 22.9545 0.494007 22.9545 1.10461V4.48595C22.9545 5.09656 22.4555 5.59056 21.8387 5.59056V5.59363Z" fill="#261133"/>
<path d="M11.3006 5.59363C10.6838 5.59363 10.1848 5.09963 10.1848 4.48902V1.10461C10.1848 0.494007 10.6838 0 11.3006 0C11.9174 0 12.4164 0.494007 12.4164 1.10461V4.48595C12.4164 5.09656 11.9174 5.59056 11.3006 5.59056V5.59363Z" fill="#261133"/>
<path d="M26.6025 32C21.4202 32 17.2019 27.827 17.2019 22.6936C17.2019 17.5602 21.4171 13.3873 26.6025 13.3873C31.7879 13.3873 36.0031 17.5602 36.0031 22.6936C36.0031 27.827 31.7879 32 26.6025 32ZM26.6025 15.5996C22.6507 15.5996 19.4366 18.7815 19.4366 22.6936C19.4366 26.6058 22.6507 29.7877 26.6025 29.7877C30.5543 29.7877 33.7684 26.6058 33.7684 22.6936C33.7684 18.7815 30.5543 15.5996 26.6025 15.5996Z" fill="#261133"/>
<path d="M26.6026 23.7982C25.9858 23.7982 25.4868 23.3042 25.4868 22.6936V19.3C25.4868 18.6894 25.9858 18.1954 26.6026 18.1954C27.2194 18.1954 27.7184 18.6894 27.7184 19.3V22.6936C27.7184 23.3042 27.2194 23.7982 26.6026 23.7982Z" fill="#261133"/>
<path d="M28.0344 25.2189C27.7493 25.2189 27.4641 25.1115 27.2441 24.8937L25.8121 23.4761C25.3751 23.0434 25.3751 22.3438 25.8121 21.9143C26.2492 21.4847 26.9558 21.4816 27.3898 21.9143L28.8217 23.3319C29.2587 23.7645 29.2587 24.4641 28.8217 24.8937C28.6047 25.1084 28.3196 25.2158 28.0313 25.2158L28.0344 25.2189Z" fill="#261133"/>
</g>
<defs>
<clipPath id="clip0_41_588">
<rect width="36" height="32" fill="white"/>
</clipPath>
</defs>
</svg>
