<svg width="33" height="33" viewBox="0 0 33 33" fill="none" xmlns="http://www.w3.org/2000/svg">
<path d="M10.9932 0.962299C7.69055 2.10801 4.84238 4.2826 2.867 7.16666C0.891628 10.0507 -0.10683 13.4922 0.0182874 16.9857C0.143405 20.4791 1.3855 23.8404 3.56213 26.5758C5.73877 29.3111 8.7352 31.2764 12.1113 32.1829C14.8484 32.8892 17.7161 32.9202 20.4678 32.2733C22.9606 31.7133 25.2652 30.5156 27.1561 28.7974C29.124 26.9545 30.5525 24.6101 31.2878 22.0162C32.0871 19.1954 32.2294 16.229 31.7036 13.3447H16.3335V19.7205H25.2348C25.0569 20.7374 24.6757 21.7079 24.1139 22.5741C23.5522 23.4402 22.8215 24.1841 21.9656 24.7612C20.8786 25.4802 19.6533 25.964 18.3684 26.1815C17.0796 26.4212 15.7577 26.4212 14.469 26.1815C13.1628 25.9115 11.9272 25.3724 10.8408 24.5985C9.09552 23.3631 7.78505 21.608 7.0964 19.5836C6.3961 17.5213 6.3961 15.2856 7.0964 13.2233C7.58659 11.7777 8.39695 10.4616 9.46699 9.37301C10.6915 8.10442 12.2418 7.19763 13.9478 6.75212C15.6537 6.30661 17.4494 6.3396 19.1379 6.84747C20.4569 7.25236 21.663 7.95979 22.6602 8.91335C23.6639 7.91484 24.6658 6.91375 25.6661 5.91008C26.1825 5.37037 26.7455 4.85648 27.2542 4.30386C25.7321 2.88738 23.9454 1.78518 21.9965 1.06043C18.4476 -0.22819 14.5645 -0.262821 10.9932 0.962299Z" fill="white"/>
<path d="M10.993 0.962394C14.5641 -0.263558 18.4472 -0.229839 21.9964 1.05794C23.9456 1.78762 25.7315 2.89512 27.2515 4.31686C26.735 4.86949 26.1902 5.38596 25.6634 5.92309C24.6614 6.92332 23.6603 7.9201 22.6601 8.91345C21.6629 7.95988 20.4567 7.25246 19.1378 6.84757C17.4499 6.33792 15.6542 6.30302 13.9478 6.74671C12.2414 7.19039 10.6902 8.09552 9.46428 9.36277C8.39424 10.4513 7.58388 11.7675 7.09369 13.2131L1.74048 9.06839C3.6566 5.26862 6.97425 2.36209 10.993 0.962394Z" fill="#E33629"/>
<path d="M0.320204 13.1744C0.607932 11.7484 1.08562 10.3674 1.7405 9.06842L7.0937 13.2234C6.39341 15.2857 6.39341 17.5215 7.0937 19.5837C5.31016 20.961 3.52576 22.3451 1.7405 23.7362C0.101093 20.4729 -0.398896 16.7548 0.320204 13.1744Z" fill="#F8BD00"/>
<path d="M16.3333 13.3422H31.7034C32.2292 16.2265 32.087 19.193 31.2877 22.0138C30.5523 24.6077 29.1239 26.9521 27.1559 28.795C25.4283 27.447 23.693 26.1094 21.9654 24.7614C22.8219 24.1836 23.553 23.4389 24.1147 22.5719C24.6765 21.7048 25.0574 20.7333 25.2347 19.7155H16.3333C16.3307 17.5928 16.3333 15.4675 16.3333 13.3422Z" fill="#587DBD"/>
<path d="M1.73779 23.736C3.52306 22.3588 5.30746 20.9746 7.091 19.5836C7.78103 21.6087 9.09337 23.3639 10.8406 24.5985C11.9303 25.3688 13.1686 25.9035 14.4765 26.1686C15.7653 26.4082 17.0871 26.4082 18.3759 26.1686C19.6608 25.9511 20.8861 25.4673 21.9731 24.7483C23.7007 26.0963 25.436 27.434 27.1636 28.7819C25.273 30.5011 22.9684 31.6997 20.4753 32.2604C17.7236 32.9073 14.8559 32.8762 12.1188 32.17C9.95406 31.592 7.93201 30.573 6.17943 29.177C4.32443 27.7043 2.80935 25.8483 1.73779 23.736Z" fill="#319F43"/>
</svg>
