<svg width="66" height="78" viewBox="0 0 66 78" fill="none" xmlns="http://www.w3.org/2000/svg">
<g clip-path="url(#clip0_5_21)">
<path d="M32.8767 0C32.8767 0 26.9379 3.47895 25.8003 15.3788C24.6628 27.2787 21.178 29.9875 13.0297 31.4933C4.88152 32.9974 0.697424 33.7643 0.0162166 37.2416C-0.66335 40.7189 19.0851 41.7902 21.6589 47.7821C24.2327 53.774 23.7994 78.4657 30.9529 77.9934C38.1064 77.5211 34.2834 49.5381 43.2885 47.6966C52.2936 45.855 65.5418 43.691 65.9932 38.4347C66.4446 33.1784 40.2584 31.1378 38.9074 25.8881C37.5565 20.6384 40.7295 1.47123 32.8767 0Z" fill="#F9C189"/>
</g>
<defs>
<clipPath id="clip0_5_21">
<rect width="66" height="78" fill="white"/>
</clipPath>
</defs>
</svg>
