<svg width="175" height="214" viewBox="0 0 175 214" fill="none" xmlns="http://www.w3.org/2000/svg">
<g clip-path="url(#clip0_5_39)">
<path d="M16.9604 106.565L-47 143.259C-47 143.259 -14.5954 153.499 16.9604 143.259C16.9604 143.259 5.87273 195.313 13.5506 211.522C21.2238 227.737 58.7502 159.046 58.7502 159.046L105.657 200.433C105.657 200.433 109.92 173.979 99.6864 143.259C99.6864 143.259 169.617 142.405 174.734 131.311C179.851 120.217 109.92 111.685 109.92 111.685L175 64.7513L96.2719 83.523C96.2719 83.523 108.213 10.1445 104.799 0.753931C101.389 -8.63191 48.5114 72.4337 48.5114 72.4337L-14.5954 47.6879L16.9604 106.565Z" fill="#671DD1"/>
</g>
<defs>
<clipPath id="clip0_5_39">
<rect width="222" height="214" fill="white" transform="translate(-47)"/>
</clipPath>
</defs>
</svg>
