<svg width="141" height="19" viewBox="0 0 141 19" fill="none" xmlns="http://www.w3.org/2000/svg">
<path d="M9.36 18.336C5.52 18.336 3.336 17.472 1.224 16.128L0.744 11.904C2.904 13.056 5.424 13.8 8.328 13.8C9.072 13.8 9.384 13.512 9.384 13.08C9.384 12.648 9.096 12.36 8.424 12.312C3.432 11.952 0.288 10.512 0.288 6.864C0.288 2.88 4.08 1.104 8.568 1.104C11.856 1.104 13.992 2.016 16.008 3.072L16.608 9.048C14.952 8.28 11.424 7.464 9.072 7.464C7.992 7.464 7.752 7.872 7.752 8.256C7.752 8.64 7.992 8.952 8.736 9.024C13.8 9.504 16.776 10.344 16.776 13.728C16.776 17.04 13.104 18.336 9.36 18.336ZM17.6631 18V1.68L24.8631 0.24V7.824L33.2631 4.056V10.968L31.2231 11.328L33.6471 18H26.8551L24.8631 12V18H17.6631ZM34.6095 9.384C35.5935 10.152 36.8415 10.632 38.2095 10.632C39.5775 10.632 40.8255 10.152 41.8095 9.384V18H34.6095V9.384ZM38.2095 9.192C35.8095 9.192 33.8895 7.272 33.8895 4.872C33.8895 2.472 35.8095 0.551999 38.2095 0.551999C40.6095 0.551999 42.5295 2.472 42.5295 4.872C42.5295 7.272 40.6095 9.192 38.2095 9.192ZM43.1134 11.904V1.68L50.3134 0.24V11.808C50.3134 13.32 51.6814 13.464 52.9294 12.792L52.1854 17.448C51.3694 17.952 50.1214 18.312 48.8014 18.312C46.0894 18.312 43.1134 16.752 43.1134 11.904ZM53.4259 11.904V1.68L60.6259 0.24V11.808C60.6259 13.32 61.9939 13.464 63.2419 12.792L62.4979 17.448C61.6819 17.952 60.4339 18.312 59.1139 18.312C56.4019 18.312 53.4259 16.752 53.4259 11.904ZM72.4538 18.336C68.6138 18.336 66.4298 17.472 64.3178 16.128L63.8378 11.904C65.9978 13.056 68.5178 13.8 71.4218 13.8C72.1658 13.8 72.4778 13.512 72.4778 13.08C72.4778 12.648 72.1898 12.36 71.5178 12.312C66.5258 11.952 63.3818 10.512 63.3818 6.864C63.3818 2.88 67.1738 1.104 71.6618 1.104C74.9498 1.104 77.0858 2.016 79.1018 3.072L79.7018 9.048C78.0458 8.28 74.5178 7.464 72.1658 7.464C71.0858 7.464 70.8458 7.872 70.8458 8.256C70.8458 8.64 71.0858 8.952 71.8298 9.024C76.8938 9.504 79.8698 10.344 79.8698 13.728C79.8698 17.04 76.1978 18.336 72.4538 18.336ZM80.7568 18V1.656L87.8368 0.24V8.088C88.2928 5.088 90.0208 3.864 92.1808 3.864C94.7728 3.864 96.5728 5.616 96.5728 9.312V18H89.7088V11.112C89.7088 10.512 89.3008 10.152 88.7728 10.152C88.2448 10.152 87.8368 10.512 87.8368 11.112V18H80.7568ZM104.926 14.184C104.71 17.304 102.91 18.336 101.086 18.336C98.9256 18.336 97.5576 16.92 97.5576 14.856C97.5576 12.024 100.174 10.152 104.158 10.512C102.67 9.168 99.2136 9.744 97.4616 10.896L98.3256 5.448C100.15 4.416 102.286 3.864 104.278 3.864C108.238 3.864 111.718 6.072 111.718 11.04V18H105.982L104.926 14.184ZM104.254 13.632C104.926 13.632 105.454 13.104 105.454 12.432C105.454 11.76 104.926 11.232 104.254 11.232C103.582 11.232 103.054 11.76 103.054 12.432C103.054 13.104 103.582 13.632 104.254 13.632ZM112.819 18V4.2H118.555L119.803 9.768C119.707 5.808 121.483 3.792 124.507 4.152V11.064C122.395 10.704 120.019 10.704 120.019 12.504V18H112.819ZM125.163 11.208C125.163 6.792 128.235 3.864 132.771 3.864C137.523 3.864 140.307 7.104 139.395 12.264H132.195C132.411 14.688 136.227 14.424 138.819 13.272L138.435 16.896C136.755 17.856 134.787 18.336 132.915 18.336C128.883 18.336 125.163 16.08 125.163 11.208ZM132.891 11.208C133.587 11.208 134.115 10.656 134.115 9.936C134.115 9.24 133.587 8.712 132.891 8.712C132.171 8.712 131.619 9.24 131.619 9.936C131.619 10.656 132.171 11.208 132.891 11.208Z" fill="#261133"/>
</svg>
